<svg xmlns="http://www.w3.org/2000/svg" viewBox="0 0 92 92" width="92" height="92">
	<style>
		tspan { white-space:pre }
		.shp0 { fill: #000000 } 
		.txt1 { font-size: 5px;fill: #000000;font-family: "' Helvetica  Neue',  Helvetica,  Arial" } 
	</style>
	<g id="Layer">
		<path id="Layer" class="shp0" d="M78.53,78.53c-4.27,4.27 -9.34,7.66 -14.92,9.97c-5.58,2.31 -11.56,3.5 -17.6,3.5c-6.04,0 -12.02,-1.19 -17.6,-3.5c-5.58,-2.31 -10.65,-5.7 -14.92,-9.97c-13.16,-13.16 -17.09,-32.94 -9.97,-50.13c7.12,-17.19 23.89,-28.4 42.5,-28.4c18.61,0 35.38,11.21 42.5,28.4c7.12,17.19 3.18,36.97 -9.97,50.13zM63.84,78.53c-0.85,0.85 -1.78,1.62 -2.78,2.29c-1,0.67 -2.07,1.24 -3.18,1.7c-1.11,0.46 -2.27,0.81 -3.45,1.04c-1.18,0.23 -2.38,0.35 -3.59,0.34c11.7,3.37 24.19,-1.6 30.38,-12.08c6.19,-10.48 4.49,-23.83 -4.11,-32.43c-8.61,-8.61 -21.95,-10.3 -32.43,-4.11c-10.48,6.19 -15.45,18.68 -12.08,30.38c-0.02,-6.12 3.02,-11.84 8.1,-15.26c5.08,-3.41 11.53,-4.06 17.19,-1.72c5.66,2.33 9.77,7.34 10.97,13.34c1.2,6 -0.68,12.2 -5.01,16.53zM2,46c0,7.27 1.8,14.43 5.24,20.83c3.44,6.4 8.42,11.86 14.48,15.87c6.07,4.01 13.03,6.46 20.27,7.12c7.24,0.66 14.53,-0.48 21.22,-3.33c-12.33,2.18 -24.65,-3.89 -30.44,-15c-5.78,-11.11 -3.7,-24.69 5.16,-33.54c8.86,-8.86 22.43,-10.94 33.54,-5.16c11.11,5.78 17.18,18.11 15,30.44c5.17,-12.16 4.61,-25.99 -1.54,-37.69c-6.14,-11.69 -17.22,-20.01 -30.16,-22.65c-12.94,-2.64 -26.39,0.68 -36.62,9.03c-10.23,8.36 -16.17,20.87 -16.17,34.08zM54.05,68.74c-1.46,1.46 -3.29,2.5 -5.29,3c-2,0.5 -4.1,0.45 -6.08,-0.16c-1.97,-0.6 -3.75,-1.73 -5.13,-3.26c-1.38,-1.53 -2.32,-3.41 -2.72,-5.44c-0.04,0.22 -0.07,0.45 -0.1,0.67c-0.03,0.22 -0.05,0.45 -0.07,0.68c-0.02,0.23 -0.04,0.45 -0.05,0.68c-0.01,0.23 -0.02,0.45 -0.02,0.68c0,6.6 3.97,12.54 10.07,15.07c6.09,2.52 13.11,1.13 17.77,-3.54c4.66,-4.66 6.06,-11.68 3.54,-17.77c-2.52,-6.09 -8.47,-10.07 -15.07,-10.07c-0.23,0 -0.45,0.01 -0.68,0.02c-0.23,0.01 -0.45,0.03 -0.68,0.05c-0.23,0.02 -0.45,0.04 -0.68,0.07c-0.22,0.03 -0.45,0.06 -0.67,0.1c2.03,0.4 3.91,1.34 5.44,2.72c1.53,1.38 2.66,3.16 3.26,5.13c0.6,1.97 0.66,4.08 0.16,6.08c-0.5,2 -1.54,3.83 -3,5.29zM49.95,62.96c0.3,0.12 0.62,0.19 0.94,0.19c0.32,0 0.64,-0.06 0.94,-0.19c0.3,-0.12 0.57,-0.3 0.8,-0.53c0.7,-0.7 0.91,-1.76 0.53,-2.68c-0.38,-0.92 -1.28,-1.52 -2.27,-1.52c-1,0 -1.89,0.6 -2.27,1.52c-0.38,0.92 -0.17,1.98 0.53,2.68c0.23,0.23 0.5,0.41 0.8,0.53zM40.08,53.41c-0.24,0.21 -0.48,0.42 -0.71,0.64c-0.23,0.23 -0.43,0.47 -0.64,0.71c-1.83,2.25 -2.52,5.23 -1.86,8.06c0.66,2.83 2.6,5.19 5.24,6.4c2.64,1.21 5.69,1.12 8.27,-0.23c2.57,-1.35 4.37,-3.82 4.87,-6.68c-1.25,2.1 -3.4,3.51 -5.83,3.82c-2.43,0.3 -4.86,-0.53 -6.59,-2.26c-1.73,-1.73 -2.56,-4.16 -2.26,-6.59c0.3,-2.43 1.71,-4.58 3.82,-5.83c-0.39,0.07 -0.78,0.16 -1.16,0.28c-0.38,0.12 -0.75,0.26 -1.12,0.42c-0.36,0.16 -0.71,0.35 -1.05,0.56c-0.34,0.21 -0.66,0.44 -0.97,0.69zM54.35,57.91c-0.13,-2.33 -1.62,-4.37 -3.8,-5.21c-2.18,-0.83 -4.65,-0.31 -6.3,1.34c-1.65,1.65 -2.18,4.12 -1.34,6.3c0.83,2.18 2.87,3.67 5.21,3.8c-0.03,-0.02 -0.06,-0.05 -0.1,-0.07c-0.03,-0.02 -0.06,-0.05 -0.09,-0.07c-0.03,-0.03 -0.06,-0.05 -0.09,-0.08c-0.03,-0.03 -0.06,-0.05 -0.09,-0.08c-0.84,-0.84 -1.31,-1.97 -1.31,-3.15c0,-1.18 0.47,-2.32 1.31,-3.15c0.84,-0.84 1.97,-1.31 3.15,-1.31c1.18,0 2.32,0.47 3.15,1.31c0.03,0.03 0.05,0.06 0.08,0.09c0.03,0.03 0.05,0.06 0.08,0.09c0.03,0.03 0.05,0.06 0.08,0.09c0.02,0.03 0.05,0.06 0.07,0.1z" />
	</g>
	<text id="Created by Anthony Ledoux" style="transform: matrix(1,0,0,1,-4,111)" >
		<tspan x="0" y="0" class="txt1">Created by Anthony Ledoux</tspan>
	</text>
	<text id="from the Noun Project" style="transform: matrix(1,0,0,1,-4,116)" >
		<tspan x="0" y="0" class="txt1">from the Noun Project</tspan>
	</text>
</svg>